<svg width="20" height="21" viewBox="0 0 20 21" fill="none" xmlns="http://www.w3.org/2000/svg">
<g clip-path="url(#clip0_381_1442)">
<path d="M14.167 0.5H5.83366C4.729 0.501323 3.66996 0.940735 2.88884 1.72185C2.10773 2.50296 1.66832 3.562 1.66699 4.66667V16.3333C1.66832 17.438 2.10773 18.497 2.88884 19.2781C3.66996 20.0593 4.729 20.4987 5.83366 20.5H14.167C15.2717 20.4987 16.3307 20.0593 17.1118 19.2781C17.8929 18.497 18.3323 17.438 18.3337 16.3333V4.66667C18.3323 3.562 17.8929 2.50296 17.1118 1.72185C16.3307 0.940735 15.2717 0.501323 14.167 0.5V0.5ZM5.83366 2.16667H14.167C14.83 2.16667 15.4659 2.43006 15.9348 2.8989C16.4036 3.36774 16.667 4.00362 16.667 4.66667V9.66666H3.33366V4.66667C3.33366 4.00362 3.59705 3.36774 4.06589 2.8989C4.53473 2.43006 5.17062 2.16667 5.83366 2.16667V2.16667ZM14.167 18.8333H5.83366C5.17062 18.8333 4.53473 18.5699 4.06589 18.1011C3.59705 17.6323 3.33366 16.9964 3.33366 16.3333V11.3333H16.667V16.3333C16.667 16.9964 16.4036 17.6323 15.9348 18.1011C15.4659 18.5699 14.83 18.8333 14.167 18.8333Z" fill="#53545C"/>
<path d="M9.16634 6.33329H10.833C11.054 6.33329 11.266 6.24549 11.4223 6.08921C11.5785 5.93293 11.6663 5.72097 11.6663 5.49996C11.6663 5.27894 11.5785 5.06698 11.4223 4.9107C11.266 4.75442 11.054 4.66663 10.833 4.66663H9.16634C8.94533 4.66663 8.73337 4.75442 8.57709 4.9107C8.42081 5.06698 8.33301 5.27894 8.33301 5.49996C8.33301 5.72097 8.42081 5.93293 8.57709 6.08921C8.73337 6.24549 8.94533 6.33329 9.16634 6.33329V6.33329Z" fill="#374957"/>
<path d="M10.833 14.6666H9.16634C8.94533 14.6666 8.73337 14.7544 8.57709 14.9107C8.42081 15.067 8.33301 15.2789 8.33301 15.5C8.33301 15.721 8.42081 15.9329 8.57709 16.0892C8.73337 16.2455 8.94533 16.3333 9.16634 16.3333H10.833C11.054 16.3333 11.266 16.2455 11.4223 16.0892C11.5785 15.9329 11.6663 15.721 11.6663 15.5C11.6663 15.2789 11.5785 15.067 11.4223 14.9107C11.266 14.7544 11.054 14.6666 10.833 14.6666Z" fill="#374957"/>
</g>
<defs>
<clipPath id="clip0_381_1442">
<rect width="20" height="20" fill="white" transform="translate(0 0.5)"/>
</clipPath>
</defs>
</svg>
