<svg width="21" height="21" viewBox="0 0 21 21" fill="none" xmlns="http://www.w3.org/2000/svg">
<path d="M16.6041 8.39014C16.6041 8.39014 16.1516 14.0026 15.8891 16.3668C15.7641 17.496 15.0666 18.1576 13.9241 18.1785C11.7499 18.2176 9.57326 18.2201 7.39993 18.1743C6.30076 18.1518 5.61493 17.4818 5.49243 16.3726C5.22826 13.9876 4.77826 8.39014 4.77826 8.39014" stroke="black" stroke-width="1.5" stroke-linecap="round" stroke-linejoin="round"/>
<path d="M17.7569 5.69963H3.62518" stroke="black" stroke-width="1.5" stroke-linecap="round" stroke-linejoin="round"/>
<path d="M15.0339 5.69974C14.3797 5.69974 13.8164 5.23724 13.688 4.5964L13.4855 3.58307C13.3605 3.11557 12.9372 2.79224 12.4547 2.79224H8.92719C8.44469 2.79224 8.02136 3.11557 7.89636 3.58307L7.69386 4.5964C7.56552 5.23724 7.00219 5.69974 6.34802 5.69974" stroke="black" stroke-width="1.5" stroke-linecap="round" stroke-linejoin="round"/>
</svg>
