<svg width="30" height="30" viewBox="0 0 30 30" fill="none" xmlns="http://www.w3.org/2000/svg">
<path fill-rule="evenodd" clip-rule="evenodd" d="M20.4175 3.43762H9.58125C5.805 3.43762 3.4375 6.11137 3.4375 9.89512V20.1051C3.4375 23.8889 5.79375 26.5626 9.58125 26.5626H20.4163C24.205 26.5626 26.5625 23.8889 26.5625 20.1051V9.89512C26.5625 6.11137 24.205 3.43762 20.4175 3.43762Z" stroke="#53545C" stroke-width="1.5" stroke-linecap="round" stroke-linejoin="round"/>
<path fill-rule="evenodd" clip-rule="evenodd" d="M13.3614 15.0002C13.3614 16.2789 12.3252 17.3152 11.0464 17.3152C9.7677 17.3152 8.73145 16.2789 8.73145 15.0002C8.73145 13.7214 9.7677 12.6852 11.0464 12.6852H11.0502C12.3264 12.6864 13.3614 13.7227 13.3614 15.0002Z" stroke="#53545C" stroke-width="1.5" stroke-linecap="round" stroke-linejoin="round"/>
<path d="M13.3652 15.0001H21.2627V17.3151" stroke="#53545C" stroke-width="1.5" stroke-linecap="round" stroke-linejoin="round"/>
<path d="M17.7275 17.3152V15.0002" stroke="#53545C" stroke-width="1.5" stroke-linecap="round" stroke-linejoin="round"/>
</svg>
